# xmcd
#
# Track frame offsets: 
#        150
#        17358
#        29263
#        44258
#        77459
#        95663
#        127160
#        143760
#        155274
#        172626
#        192385
#
# Disc length: 2672 seconds
#
# Revision: 1
# Processed by: cddbd v1.5.2PL0 Copyright (c) Steve Scherf et al.
# Submitted via: ExactAudioCopy v1.0b3
#
DISCID=7e0a6e0b
DTITLE=Big Ed Sullivan - It Takes A Big Big Man
DYEAR=2008
DGENRE=Blues
TTITLE0=It Takes A Big Big Man
TTITLE1=Top Shelf
TTITLE2=Too Tired To Pray
TTITLE3=Bitch Bitch Bitch
TTITLE4=Bury Me In Black
TTITLE5=The Cheating Kind
TTITLE6=On The Road To Nowhere
TTITLE7=I Fought The Law
TTITLE8=Bless Me Father
TTITLE9=Guilty
TTITLE10=Rockin Lil Mama
EXTD=
EXTT0=
EXTT1=
EXTT2=
EXTT3=
EXTT4=
EXTT5=
EXTT6=
EXTT7=
EXTT8=
EXTT9=
EXTT10=
PLAYORDER=
